<svg width="100" height="100" viewBox="0 0 100 100" fill="none" xmlns="http://www.w3.org/2000/svg">
  <circle cx="50" cy="50" r="48" stroke="#FF6B35" stroke-width="4"/>
  <circle cx="50" cy="50" r="40" fill="#FF6B35" fill-opacity="0.1"/>
  <path d="M32 38C32 34.6863 34.6863 32 38 32H62C65.3137 32 68 34.6863 68 38V62C68 65.3137 65.3137 68 62 68H38C34.6863 68 32 65.3137 32 62V38Z" fill="white"/>
  <path d="M40 30L40 70" stroke="#FF6B35" stroke-width="2" stroke-linecap="round"/>
  <path d="M50 30L50 70" stroke="#FF6B35" stroke-width="2" stroke-linecap="round"/>
  <path d="M60 30L60 70" stroke="#FF6B35" stroke-width="2" stroke-linecap="round"/>
  <path d="M30 40L70 40" stroke="#FF6B35" stroke-width="2" stroke-linecap="round"/>
  <path d="M30 50L70 50" stroke="#FF6B35" stroke-width="2" stroke-linecap="round"/>
  <path d="M30 60L70 60" stroke="#FF6B35" stroke-width="2" stroke-linecap="round"/>
  <circle cx="50" cy="50" r="10" fill="#FF6B35"/>
</svg>